<svg xmlns="http://www.w3.org/2000/svg" viewBox="0 0 968 1010"><path d="M377.3 30.7c-.8 2.1-26.7 64-57.4 137.7L264 302.2l18.1 42.2c10 23.1 18.4 42.9 18.6 43.8.5 1.7-2.1 1.8-41.2 2l-41.8.3-74.3 178.4C102.5 667 69 747.6 69 748.1s60.3.9 144.6.9c115.3 0 144.5-.3 144.1-1.3-16.3-41.3-121.1-309.7-121.5-311-.4-1.6 1.9-1.7 42.2-1.5l42.7.3 61 142.5c33.6 78.4 63.7 148.9 67.1 156.7l6 14.3h220c175.6 0 219.9-.3 219.5-1.3C893.9 745.7 586 40 583 33.2l-2.9-6.2H378.9zM860.7 840q-17.7 4.5-17.7 20.4c0 12.9 4.7 16.9 27.6 23.5 8.5 2.5 12.8 6 13.8 11.4 1.7 8.9-5.7 15.2-17.1 14.5-5.3-.3-6.7-.9-9.3-3.3-1.6-1.6-3.5-4.4-4.2-6.2-1.2-3.2-1.4-3.3-6.5-3.3-5.8 0-6.1.4-4.2 6.1 1.4 4.2 7.1 10.3 11.6 12.4 1.9.9 6.3 2.1 9.9 2.7 8 1.2 14.3-.1 20.9-4.3 10.1-6.4 12.6-21.9 4.8-30.2-3.8-3.9-6.7-5.3-19.6-9.4-13.5-4.3-17.7-7.6-17.7-14.2 0-3.3.7-4.9 3.4-7.8 3.1-3.4 3.8-3.7 10-4.1 5.8-.4 7.1-.1 10.5 2.1 2.1 1.4 4.4 3.9 5.1 5.6 1.2 2.9 1.6 3.1 6.6 3.1 5.9 0 6.3-.5 4.3-5.7-1.4-3.8-6.6-9.1-11.4-11.5-4.6-2.4-14.9-3.3-20.8-1.8M150 879v39h10v-33h11.4c13.4 0 18.4-1.4 23.9-6.8 9.3-9.1 8.1-25.5-2.4-33.1-5.5-4-11.5-5.1-28.4-5.1H150zm34.3-28.5c4.3 2 6.7 6.2 6.7 12 0 10.6-5.6 14.4-21.2 14.5H160v-29.3l10.5.6c6.3.3 11.8 1.2 13.8 2.2M214 879v39h42v-8h-31v-27h28v-9h-28v-26h31v-8h-42zm55-38.4c0 .3 5.2 9 11.6 19.5l11.6 18.9-11.6 19c-6.4 10.5-11.6 19.3-11.6 19.5 0 .3 2.4.5 5.4.5h5.3l8.7-15c4.8-8.3 8.9-15 9.1-15s4.5 6.7 9.5 15l9.2 15h5.4c3 0 5.4-.2 5.4-.5s-5.2-9.1-11.6-19.5l-11.6-19 11.6-18.9c6.4-10.4 11.6-19.1 11.6-19.5 0-.3-2.4-.6-5.3-.6h-5.3l-8.8 15c-4.8 8.2-9 15-9.1 15-.2 0-4.5-6.8-9.6-15l-9.2-15h-5.3c-3 0-5.4.3-5.4.6m98.6 6.1c1.3 3.8 8 21.3 14.7 39.1l12.1 32.3 6-.3 5.9-.3 14.4-38c7.8-20.9 14.3-38.4 14.3-38.8s-2.3-.7-5.2-.5l-5.2.3-12 33.2c-6.7 18.2-12.4 32.6-12.7 32-.4-.7-5.7-15.2-11.9-32.2-6.2-17.1-11.5-31.6-11.7-32.3-.3-.7-2.5-1.2-5.9-1.2H365zM447 879v39h42v-7.9l-15.7-.3-15.8-.3-.3-13.3-.3-13.2H485v-9h-28v-26h32v-8h-42zm57 0v39h10l.2-30.8.3-30.7 20.4 30.7 20.3 30.8h9.8v-78h-10v61.5l-20.3-30.7-20.2-30.7-5.2-.1H504zm74-35v4h21v70h11v-70h21v-8h-53zm65 22.7c0 30.9.8 35.5 7.1 42.7 5.5 6.2 12.3 8.9 22.4 8.9s16.9-2.7 22.4-8.9c6.3-7.2 7.1-11.8 7.1-42.7V840h-9.8l-.4 28.2c-.3 27-.4 28.5-2.5 32.4-3.3 6.2-8.3 8.9-16.3 8.9-8.5 0-13.6-2.6-17-8.6-2.5-4.4-2.5-4.6-2.8-32.7l-.4-28.2H643zm76 12.3v39h10v-32h12.5l8.9 15.6c5 8.6 9.5 15.8 10.2 16.1.6.2 3.4.3 6.2.1l5-.3-9.3-15.5c-5.2-8.5-9.4-15.7-9.5-16 0-.3 2-1.3 4.5-2.3 15.6-6.4 18.3-28.2 4.8-38.3-5.6-4.3-11.6-5.4-28.8-5.4H719zm34.6-28.4c6.1 2.9 8.6 11.7 5.4 19.3-2.3 5.6-7 7.5-19.2 8l-10.8.3v-14.4c0-8 .3-14.8.8-15.3 1.3-1.3 20 .3 23.8 2.1M787 879v39h42v-7.9l-15.7-.3-15.8-.3-.3-13.3-.3-13.2H825v-9h-28v-26h32v-8h-42zM96.2 843.7c-3 8.3-25.2 69.2-26.1 71.5L69 918h10.9l2.1-5.8c1.1-3.1 2.6-6.9 3.2-8.5l1-2.7h34.3l2.9 8.5 2.9 8.5h5.3c3 0 5.4-.3 5.3-.8 0-.4-6.2-17.6-13.7-38.2l-13.7-37.5-6.2-.3c-5.9-.3-6.1-.2-7.1 2.5m14.2 29.3c3.6 10.2 6.6 18.9 6.6 19.3 0 .8-26.4 1-27.2.2-.3-.3 2.3-8.5 5.8-18.3 7.9-22 7.4-20.6 7.8-20.1.2.2 3.3 8.7 7 18.9"/></svg>