<svg xmlns="http://www.w3.org/2000/svg" viewBox="0 0 2300 600"><path d="M238.7 129.2c-23.5 56.3-42.9 103-43.2 104-.4.9 4.9 14.6 13 33.5 7.5 17.5 13.9 32.4 14.2 33 .4 1-6.5 1.3-31.2 1.5l-31.8.3L104.9 433c-30.2 72.3-55.5 133.1-56.4 135.2L47 572h109c80.4 0 109-.3 109-1.1 0-.9-66.5-171.6-89.9-230.7L173 335h64.8l50.7 118.5L339.2 572h166c157.7 0 166-.1 165.4-1.8-.4-.9-53.9-123.5-118.8-272.5L433.6 27H281.3zM2174.2 150c-15 3.9-25.8 12.3-31.9 24.8-3.8 7.6-3.8 7.7-3.8 20.2 0 11.8.2 12.8 2.9 18.5 1.6 3.3 5.1 8.1 7.6 10.6 7.4 7.4 14.9 10.8 41.5 18.4 8.8 2.5 18.6 5.8 21.7 7.2 16.6 7.4 21.9 25.5 11.7 39.7-7.9 11-26.8 15.7-42.2 10.5-10.6-3.5-17.3-10.4-20.3-20.6l-1.5-5.3h-23.2l.6 5.6c1.3 12.6 11.1 26.2 23.6 32.8 13.9 7.3 33.3 9.9 49.6 6.8 20.8-4.1 38.1-21.3 40.3-40.2 1.7-15.1-1.9-27.2-10.8-36.1-7.8-7.8-12.6-9.9-49-21.3-16.5-5.1-22.9-8.8-27.1-15.4-3.5-5.6-4.4-11.3-2.9-18.6s6-13.3 13-17.1c5.3-2.9 6-3 17.5-3 11.1 0 12.4.2 17.6 2.8 7.3 3.5 13.5 10.2 15.1 16.2l1.2 4.5h24.6l-.6-2.8c-2.9-13-5.6-18.2-13.4-25.6-10.7-10.2-23.7-14.6-42.9-14.5-8.1 0-13.8.6-18.9 1.9M633 234.5V319h22v-71h21.3c24.7-.1 33.7-1.3 44.1-6.3 9.7-4.6 16.7-11.6 21.3-21.3 3.3-7 3.7-8.6 4.1-18.4.5-11.8-.9-18.7-5.5-27.2-3.7-6.8-13.1-15.4-20.5-18.7-12.2-5.5-17.5-6.1-53.7-6.1H633zm68.8-65.1c12.6 3.4 19.1 10.3 21.3 22.7 1.3 7.5.2 17.5-2.6 22.8-2.4 4.7-8.7 10-14.4 12.3-5.1 2-7.8 2.2-28.3 2.6l-22.8.4V168h20.8c14.5 0 22.3.4 26 1.4m72.2 65.1V319h91v-18h-69v-59h62.1l-.3-8.8-.3-8.7-30.7-.3-30.8-.2v-57h69v-17h-91zm119.2-80.7c1.3 2.1 12.8 21 25.7 41.9 12.8 21 23.3 38.5 23.3 39-.1.4-11.3 19-24.9 41.2s-25.2 41-25.6 41.8c-.7 1.1 1.5 1.3 11.5 1.3h12.3l19-32.5c10.4-17.9 19.3-32.5 19.6-32.5.4 0 9.6 14.6 20.5 32.5l19.9 32.4 12.3.1c6.7 0 12.2-.3 12.2-.6s-11.5-19.2-25.5-42-25.5-41.6-25.5-41.9 11.3-18.8 25.1-41.2 25.4-41.3 25.6-42.1c.4-1-2-1.2-11.7-1l-12.2.3-12.1 20.5c-6.6 11.3-15.2 26-19.2 32.8l-7.2 12.2-20.3-33-20.4-33h-24.7zm210.5 3.4c1.5 4 15.8 41.9 31.8 84.3l29.1 77h25.8l31.8-84 31.7-84-11.1-.3c-6.1-.1-11.5.1-11.9.5s-12.3 32.5-26.4 71.2c-14.1 38.8-26 71.1-26.4 71.8-.4.9-11-26.8-27.2-71.2l-26.4-72.5H1101zm174.3 77.3V319h91v-18h-69l.2-29.3.3-29.2 30.8-.3 30.7-.2v-18h-62l.2-28.3.3-28.2 34.3-.3 34.2-.2v-17h-91zm125 0V319h22l.2-67.1.3-67.1 44.1 66.9 44.1 66.8 11.1.3 11.2.3V150h-22l-.2 66.7-.3 66.6-44-66.6-44-66.7H1403zm160-76v8.5l23.3.2 23.2.3.3 75.7.2 75.8h22V167h46v-17h-115zm142.2 52.7.3 61.3 2.7 8.1c9.5 28 35.8 43.1 68.6 39.4 26.9-3 43.6-15.7 51.8-39.1l2.9-8.4.3-61.3.3-61.2H1810v57.4c0 34.2-.4 59.5-1 62.7-3.5 19-16.8 29.7-38 30.7-21 1-36-8.1-41.7-25.1-1.6-4.7-1.8-11.4-2.1-65.5l-.3-60.2h-22zm163.8 23.2V319h22v-69.1l13.7.3 13.8.3 19.9 34.2 20 34.3h26.5l-21-35c-11.6-19.3-20.8-35.4-20.4-35.9.3-.5 2-1.3 3.8-1.6 5.5-1.2 17-7.8 21.5-12.4 22.7-23.2 16.4-63.5-12-77.3-11.9-5.8-14.3-6.1-52.5-6.6l-35.3-.3zm73.1-63.8c9.8 4.6 14.9 11.2 16.9 22.4 2.9 16.2-4.3 30.8-17.9 36.2-5.1 2-7.7 2.2-27.8 2.6l-22.3.4v-64.4l23.3.4c21.1.3 23.6.5 27.8 2.4m74.9 63.9V319h91v-18h-69v-59h62.1l-.3-8.8-.3-8.7-30.7-.3-30.8-.2v-57h69v-17h-91zM1249.1 394c-9.8 2.1-18.8 10.7-21.8 20.9-3.9 13.7 3.5 29.6 16.6 35.4 6.5 2.9 17.9 2.9 24.2 0 5.1-2.3 12.9-9.4 12.9-11.8 0-.8-.9-1.9-2.1-2.6-1.9-.9-2.5-.6-5 2.4-6.4 7.7-19.8 10.2-29 5.4-9.6-5.1-14.5-16.7-11.5-27 3.1-10.6 11.3-16.7 22.4-16.7 7.6 0 14 2.8 18.1 7.7 2.5 3 3.2 3.3 5 2.4 3-1.7 2.6-3.2-2.1-7.8-7.8-7.5-17.5-10.4-27.7-8.3m131.9-.1c-6.9 2.2-11 7.8-11 14.9 0 6.5 3.2 10.1 13.9 15.3 5.2 2.5 10.5 5.8 11.8 7.3 3.2 3.8 3 8-.6 11.7-2.5 2.4-3.7 2.9-8.1 2.9-5.9 0-10-1.8-12.4-5.4-1.4-2.3-1.9-2.4-4.1-1.4-3 1.4-3.1 2.2-.4 5.9 4.9 7 18.4 9.7 25.9 5.3 5-2.9 8-7.8 8-13.1 0-8.2-3.6-12.4-15.3-17.7-4.3-2-8.9-4.7-10.2-6-3.3-3.3-3.3-7.9 0-11.1 3.2-3.3 10.4-3.4 15.4-.4 3.1 1.9 3.4 1.9 5.2.3 2.7-2.4 2.4-3-2.4-5.9-4.8-2.7-11.7-3.9-15.7-2.6m456.6.1c-6.5 2-11.4 9.8-10.3 16.6 1 6 4.1 9 14.1 13.8 11.2 5.3 13.6 7.6 13.6 12.8 0 2.9-.7 4.5-2.6 6.3-5.2 4.8-19 2.5-20.9-3.4-.8-2.6-1.6-2.6-4.6-.2l-2.4 1.9 4.5 4.5c5.8 5.8 11.2 7.4 18.9 5.8 5.8-1.1 10.5-4.7 12.3-9.1 1.6-4.2 1.1-10.7-1.1-14.4-2.5-4-4.7-5.6-13.1-9.1-8.3-3.5-10.7-5.3-12-9.2-1.3-3.6.6-8.5 3.5-9.7 3.6-1.3 10.7-.6 13.6 1.4 2.4 1.8 3.1 1.9 4.9.8 2.7-1.7 2.5-3.3-.7-5.6-5.1-3.6-12-4.9-17.7-3.2m77.5 0c-9.7 2.1-18.8 10.7-21.8 20.9-3.9 13.7 3.5 29.6 16.6 35.4 6.6 2.9 18 2.9 24.3-.2 10.7-5.1 17.1-15.1 17.2-26.6.1-19.5-17-33.4-36.3-29.5m19.7 9.3c14.7 9.7 13.8 32.2-1.7 40.4-6.2 3.2-16 3.2-22.2 0-9.6-5.1-14.5-16.7-11.5-27 1.9-6.4 6.2-11.8 11.8-14.6 6.4-3.3 17.8-2.7 23.6 1.2m95.3-9.3c-12.6 2.7-21.9 13.6-22.8 27-.9 12.2 5.5 23.3 16.5 28.7 4.7 2.3 7 2.8 13.2 2.7 8.8 0 14-2.2 20.8-8.7 4.8-4.7 5.1-5.7 2-7.6-1.9-1.2-2.4-1-5.2 2.2-4.7 5.4-9.9 7.7-17.4 7.7-14.2 0-23.6-9.1-23.6-23 0-13.8 9.4-23 23.4-23 7.1 0 12.9 2.5 17.6 7.7 2.9 3.1 3.4 3.3 5.3 2.1 1.2-.7 2.1-1.6 2.1-2.1 0-.4-1.8-2.7-4-5.1-6.7-7.3-17.8-10.7-27.9-8.6m-1197.6 1.2c-.3.7-3 8.3-6.1 16.8s-7.6 21-10 27.7l-4.3 12.3h3.4c3.2 0 3.4-.2 5.5-6.5l2.2-6.5h26.4l1.7 5.2c2.3 7.3 2.9 8 6.4 7.6l3-.3-6.4-17.5c-3.5-9.6-8.2-22.6-10.4-28.8l-4.1-11.2h-3.4c-1.9 0-3.7.6-3.9 1.2m8.9 20.4c2.4 7.1 4.8 13.7 5.1 14.6.7 1.6-.2 1.8-9.9 1.8-5.8 0-10.6-.2-10.6-.4 0-1.2 10.3-29.6 10.6-29.3.2.2 2.4 6.1 4.8 13.3M868 423v29h6v-26h9.9c10.7 0 14.1-1.3 18.5-7.3 3.2-4.4 2.9-13.3-.6-17.9-4.3-5.7-7.9-6.8-21.7-6.8H868zm27.4-20.1c3.1 3 4.2 7.3 2.6 11.2-1.9 4.5-5.6 5.9-15.5 5.9H874v-20.2l9.4.4c8.3.3 9.7.6 12 2.7M914 423v29h32v-6h-26v-20h22v-6h-22v-20h26v-6h-32zm47.5-15.1c5.2 7.6 9.5 14.2 9.5 14.5 0 .4-4 6.6-8.8 13.9-4.9 7.2-9.2 13.8-9.6 14.4-.5 1 .3 1.3 2.9 1.3 3.5 0 3.8-.3 11.4-12.1l7.8-12.1 7.8 12.1c7.8 12 7.9 12.1 11.7 12.1h3.9l-9.7-14.2c-5.4-7.7-9.7-14.6-9.7-15.2s3.4-6.1 7.5-12.1c4.1-6.1 8.3-12.2 9.3-13.8l1.7-2.7h-3.6c-3.6 0-3.9.3-11.1 11.5-4.1 6.3-7.6 11.5-7.8 11.5s-3.7-5.2-7.8-11.5c-7.3-11.3-7.5-11.5-11.2-11.5h-3.8zM1029 423v29h6v-26h22v-6h-22v-20h26v-6h-32zm41-.1V452h6v-26h10.8l8.2 13c7.9 12.6 8.3 13 11.6 13 2.6 0 3.3-.3 2.8-1.3-.5-.6-4.1-6.3-8.1-12.5s-7.3-11.6-7.3-12.1 1-1.2 2.3-1.5c8.6-2.4 12.7-14.8 7.5-22.6-4.6-6.7-6.6-7.5-20.9-7.8l-12.9-.4zm23.8-21.8c3.8 1.3 6.2 4.8 6.2 8.9 0 7.3-4.3 10-16 10h-8v-20h7.4c4 0 8.7.5 10.4 1.1m37.7-5.9c-.3.7-3 8.3-6.1 16.8s-7.6 21-10 27.7l-4.3 12.3h3.4c3.2 0 3.4-.2 5.5-6.5l2.2-6.5h26.4l1.7 5.2c2.3 7.3 2.9 8 6.4 7.6l3-.3-6.4-17.5c-3.5-9.6-8.2-22.6-10.4-28.8l-4.1-11.2h-3.4c-1.9 0-3.7.6-3.9 1.2m8.9 20.4c2.4 7.1 4.8 13.7 5.1 14.6.7 1.6-.2 1.8-9.9 1.8-5.8 0-10.6-.2-10.6-.4 0-1.2 10.3-29.6 10.6-29.3.2.2 2.4 6.1 4.8 13.3m26.6 7.4v29h6l.2-23.5.3-23.5 17.5 23.4c16.5 22.2 17.7 23.5 20.8 23.6h3.2v-58h-7l-.2 23.2-.3 23.1-17.4-23.1c-15.6-20.8-17.7-23.2-20.3-23.2h-2.8zm125 0v29h7v-26h31v26h7v-58h-7v26h-31v-26h-7zm59 0v29h6v-58h-6zm64 0v29h32v-6h-26v-20h22v-6h-22v-20h26v-6h-32zm61-28.3c0 .4 4.6 13.5 10.2 29l10.2 28.3h7.1l9.9-27.8c5.5-15.2 10.1-28.3 10.4-29q.45-1.2-3-1.2h-3.3l-8.4 24c-4.6 13.2-8.7 24.2-9 24.4s-4.4-10.6-9.1-24l-8.5-24.4h-3.2c-1.8 0-3.3.3-3.3.7m56 28.3v29h32v-6h-26v-20h22v-6h-22v-20h26v-6h-32zm44-.1V452h7l.2-23.2.3-23.2 17.4 23.2c15.6 20.9 17.6 23.2 20.2 23.2h2.9v-58h-6l-.2 23.5-.3 23.5-17.5-23.3c-16-21.1-17.8-23.2-20.7-23.5l-3.3-.3zm56-25.9v3h16v52h6l.2-25.8.3-25.7 7.8-.3 7.7-.3V394h-38zm46.2 19.8.3 22.9 2.9 4.1c7.4 10.7 24.7 11.9 34.9 2.4 4.7-4.4 5.7-10.2 5.7-32.4V394h-7v21.2c0 23.8-.5 26-7.1 29.4-4.9 2.5-15 1.6-18.5-1.6-4.9-4.6-5.4-7.3-5.4-29v-20h-6.1zm56.8 6.1V452h7v-26h10.7l7.9 12.7c7.7 12.4 8.1 12.8 11.7 13.1l3.7.3-8.5-13.1c-4.7-7.2-8.5-13.3-8.5-13.5 0-.3.7-.5 1.7-.5 2.4 0 8.1-4.7 9.9-8.2 2.1-4 1.4-12-1.3-15.6-4.5-6.1-6.4-6.7-20.9-7l-13.4-.4zm28.1-19.1c3.2 3.6 3.6 6.9 1.5 11.1-2 3.9-5.5 5.1-14.6 5.1h-8v-20.2l9.1.4c8.8.3 9.2.4 12 3.6M1785 423v29h31v-6h-25v-20h22v-6h-22v-20h25v-6h-31zm179 0v29h6v-25.8l10.4-.4c12.1-.4 14.6-1.6 18.4-8.9 4-7.6.9-17-6.9-20.9-3.2-1.7-5.9-2-15.9-2h-12zm24.4-22c7.2 2.7 7.8 14.7.9 17.9-1.3.6-6.2 1.1-10.8 1.1h-8.5v-20h7.9c4.4 0 9.1.4 10.5 1"/></svg>